<?xml version="1.0" encoding="UTF-8"?>
<svg width="170px" height="50px" viewBox="0 0 170 50" version="1.1" xmlns="http://www.w3.org/2000/svg" xmlns:xlink="http://www.w3.org/1999/xlink">
    <g id="--Connexion" stroke="none" stroke-width="1" fill="none" fill-rule="evenodd">
        <g id="Web---Connexion-/-5-3-Code-secret-Error" transform="translate(-554.000000, -53.000000)" fill="#268038">
            <g id="Logo/Cetelem/Logotype/Original/Color" transform="translate(554.625000, 53.093750)">
                <g id="Group-86" transform="translate(0.000000, 0.121125)">
                    <path d="M98.2188375,38.2422 C96.8358375,38.2422 95.7153375,37.1217 95.7153375,35.7387 L95.7153375,3.260325 C95.7153375,1.877325 96.8358375,0.756825 98.2188375,0.756825 C99.6018375,0.756825 100.722338,1.877325 100.722338,3.260325 L100.722338,35.7387 C100.722338,37.1217 99.6018375,38.2422 98.2188375,38.2422" id="Fill-43"></path>
                    <path d="M167.790488,22.333425 C167.776238,16.763175 163.240988,12.22305 157.667738,12.22305 C154.628738,12.22305 151.905863,13.575675 150.048488,15.7023 C148.191863,13.575675 145.468613,12.22305 142.429613,12.22305 C136.852238,12.22305 132.313988,16.763175 132.307238,22.3398 L132.306488,35.738925 C132.306488,37.12155 133.426988,38.24205 134.809988,38.24205 C136.192613,38.24205 137.313488,37.12155 137.313488,35.738925 L137.313862,22.349175 C137.313862,19.5288 139.609238,17.23005 142.429613,17.23005 C145.250363,17.23005 147.545738,19.5288 147.545738,22.349175 L147.546113,35.738925 C147.546113,37.12155 148.666613,38.24205 150.049238,38.24205 C151.432238,38.24205 152.552738,37.12155 152.552738,35.738925 L152.552738,22.344675 C152.554238,19.526175 154.848488,17.23005 157.667738,17.23005 C160.488113,17.23005 162.783863,19.532175 162.783863,22.35255 L162.784613,35.738925 C162.784613,37.12155 163.905488,38.24205 165.288113,38.24205 C166.671113,38.24205 167.791613,37.12155 167.791613,35.738925 L167.790488,22.333425 Z" id="Fill-45"></path>
                    <path d="M64.338825,33.23535 C61.51845,33.23535 59.4792,30.940725 59.4792,28.12035 L59.4792,17.272725 L64.6767,17.272725 C65.937075,17.272725 66.958575,16.251225 66.958575,14.99085 C66.958575,13.7301 65.937075,12.708975 64.6767,12.708975 L59.4792,12.708975 L59.4792,7.12785 C59.4792,5.74485 58.3587,4.624725 56.9757,4.624725 C55.5927,4.624725 54.4722,5.74485 54.4722,7.12785 L54.4722,28.12035 C54.4722,33.701475 58.757325,38.24235 64.338825,38.24235 C65.721825,38.24235 66.842325,37.121475 66.842325,35.73885 C66.842325,34.35585 65.721825,33.23535 64.338825,33.23535" id="Fill-47"></path>
                    <path d="M109.111762,22.9880625 C109.747012,19.2541875 113.219887,16.5999375 116.949637,16.5999375 C120.922387,16.5999375 123.971887,19.9708125 124.538137,22.9880625 L109.111762,22.9880625 Z M129.281512,24.1681875 C129.281512,17.0229375 122.905012,12.2229375 116.949637,12.2229375 C109.802887,12.2229375 103.988512,18.0373125 103.988512,25.1840625 C103.988512,32.6285625 109.664512,38.2423125 117.191512,38.2423125 C121.182262,38.2423125 124.166137,36.8094375 125.576512,35.9626875 C126.246262,35.5704375 126.802387,34.7709375 126.802387,33.8701875 C126.802387,32.7260625 125.877262,31.6336875 124.516012,31.6336875 C124.121512,31.6336875 123.631762,31.7833125 123.242512,31.9775625 C121.699762,32.8348125 119.618137,33.7681875 117.191137,33.7681875 C113.314762,33.7681875 109.910887,31.4270625 109.115137,27.5518125 L126.140512,27.5518125 C127.813762,27.5518125 129.281512,25.9708125 129.281512,24.1681875 L129.281512,24.1681875 Z" id="Fill-49"></path>
                    <path d="M31.2756375,22.9880625 C31.9108875,19.2541875 35.3841375,16.5999375 39.1138875,16.5999375 C43.0866375,16.5999375 46.1357625,19.9708125 46.7020125,22.9880625 L31.2756375,22.9880625 Z M51.4453875,24.1681875 C51.4453875,17.0229375 45.0692625,12.2229375 39.1138875,12.2229375 C31.9667625,12.2229375 26.1523875,18.0373125 26.1523875,25.1840625 C26.1523875,32.6285625 31.8283875,38.2423125 39.3553875,38.2423125 C43.3465125,38.2423125 46.3300125,36.8094375 47.7403875,35.9626875 C48.4105125,35.5704375 48.9662625,34.7709375 48.9662625,33.8701875 C48.9662625,32.7260625 48.0415125,31.6336875 46.6802625,31.6336875 C46.2857625,31.6336875 45.7956375,31.7833125 45.4063875,31.9775625 C43.8636375,32.8348125 41.7820125,33.7681875 39.3553875,33.7681875 C35.4786375,33.7681875 32.0747625,31.4270625 31.2790125,27.5518125 L48.3047625,27.5518125 C49.9780125,27.5518125 51.4453875,25.9708125 51.4453875,24.1681875 L51.4453875,24.1681875 Z" id="Fill-51"></path>
                    <path d="M72.675975,22.9880625 C73.311225,19.2541875 76.784475,16.5999375 80.514225,16.5999375 C84.486975,16.5999375 87.5361,19.9708125 88.10235,22.9880625 L72.675975,22.9880625 Z M92.845725,24.1681875 C92.845725,17.0229375 86.4696,12.2229375 80.514225,12.2229375 C73.367475,12.2229375 67.552725,18.0373125 67.552725,25.1840625 C67.552725,32.6285625 73.2291,38.2423125 80.755725,38.2423125 C84.74685,38.2423125 87.73035,36.8094375 89.140725,35.9626875 C89.81085,35.5704375 90.366975,34.7709375 90.366975,33.8701875 C90.366975,32.7260625 89.44185,31.6336875 88.0806,31.6336875 C87.6861,31.6336875 87.195975,31.7833125 86.8071,31.9775625 C85.263975,32.8348125 83.182725,33.7681875 80.755725,33.7681875 C76.87935,33.7681875 73.4751,31.4270625 72.67935,27.5518125 L89.7051,27.5518125 C91.37835,27.5518125 92.845725,25.9708125 92.845725,24.1681875 L92.845725,24.1681875 Z" id="Fill-53"></path>
                    <path d="M14.0089875,38.2422 C10.6812375,38.2422 7.3531125,36.975075 4.8199875,34.43745 C-0.2473875,29.36445 -0.2473875,21.108825 4.8199875,16.03545 C7.2736125,13.577325 10.5372375,12.2232 14.0086125,12.2232 C17.4803625,12.2232 20.7436125,13.577325 23.1979875,16.03545 C24.1756125,17.014575 24.1756125,18.60195 23.1976125,19.57995 C22.2196125,20.559075 20.6348625,20.559075 19.6572375,19.57995 C18.1489875,18.069075 16.1423625,17.2377 14.0086125,17.2377 C11.8748625,17.2377 9.8686125,18.069075 8.3603625,19.57995 C5.2452375,22.69845 5.2452375,27.77445 8.3599875,30.89295 C11.4758625,34.010325 16.5428625,34.010325 19.6576125,30.89295 C20.6356125,29.913825 22.2199875,29.913825 23.1979875,30.89295 C24.1756125,31.87245 24.1756125,33.459825 23.1976125,34.43745 C20.6641125,36.975075 17.3363625,38.2422 14.0089875,38.2422" id="Fill-55"></path>
                    <path d="M22.1066625,46.6723875 L4.8484125,46.6723875 C3.5884125,46.6723875 2.5665375,45.6512625 2.5665375,44.3905125 C2.5665375,43.1301375 3.5884125,42.1090125 4.8484125,42.1090125 L22.1066625,42.1090125 C23.3666625,42.1090125 24.3885375,43.1301375 24.3885375,44.3905125 C24.3885375,45.6512625 23.3666625,46.6723875 22.1066625,46.6723875" id="Fill-57"></path>
                </g>
            </g>
        </g>
    </g>
</svg>